# xmcd
#
# Track frame offsets: 
#        150
#        16042
#        32400
#        54260
#        70527
#        88995
#        104465
#        117475
#        132427
#        149547
#        167025
#        182982
#        199007
#        216907
#        232907
#        251920
#
# Disc length: 3624 seconds
#
# Revision: 14
# Processed by: cddbd v1.5.2PL0 Copyright (c) Steve Scherf et al.
# Submitted via: ExactAudioCopyFreeDBPlugin 1.0
#
DISCID=e40e2610
DTITLE=Shania Twain - Come On Over (International Version)
DYEAR=1999
DGENRE=Country
TTITLE0=You're Still the One
TTITLE1=When
TTITLE2=From This Moment On
TTITLE3=Black Eyes, Blue Tears
TTITLE4=I Won't Leave You Lonely
TTITLE5=I'm Holdin' On to Love (to Save My Life)
TTITLE6=Come On Over
TTITLE7=You've Got a Way
TTITLE8=Whatever You Do! Don't!
TTITLE9=Man! I Feel Like a Woman!
TTITLE10=Love Gets Me Every Time
TTITLE11=Don't Be Stupid (You Know I Love You)
TTITLE12=That Don't Impress Me Much
TTITLE13=Honey, I'm Home
TTITLE14=If You Wanna Touch Her, Ask!
TTITLE15=Rock This Country!
EXTD=YEAR: 1999
EXTT0=
EXTT1=
EXTT2=
EXTT3=
EXTT4=
EXTT5=
EXTT6=
EXTT7=
EXTT8=
EXTT9=
EXTT10=
EXTT11=
EXTT12=
EXTT13=
EXTT14=
EXTT15=
PLAYORDER=
